<svg width="24" height="24" viewBox="0 0 24 24" fill="none" xmlns="http://www.w3.org/2000/svg">
<path fill-rule="evenodd" clip-rule="evenodd" d="M20.73 16.88L20.59 17.13C20.4094 17.4323 20.1547 17.6836 19.85 17.86L13.14 21.73C12.8362 21.9063 12.4913 21.9994 12.14 22H11.85C11.4987 21.9994 11.1538 21.9063 10.85 21.73L4.14 17.85C3.83697 17.6747 3.58526 17.423 3.41 17.12L3.27 16.87C3.09375 16.5662 3.00062 16.2213 3 15.87V8.12C3.00062 7.7687 3.09375 7.4238 3.27 7.12L3.41 6.87C3.58979 6.5705 3.84049 6.3198 4.14 6.14L10.86 2.27C11.1623 2.0901 11.5082 1.9967 11.86 2H12.14C12.4913 2.0006 12.8362 2.0937 13.14 2.27L19.85 6.15C20.156 6.3213 20.4087 6.574 20.58 6.88L20.73 7.13C20.9041 7.4347 20.9971 7.779 21 8.13V15.88C20.9994 16.2313 20.9063 16.5762 20.73 16.88ZM11.85 20H12.14L18 16.62L12 13.16L6 16.62L11.85 20ZM13 4.5L18.85 7.88L19 8.13V14.89L13 11.42V4.5Z" fill="black"/>
</svg>
